<svg width="48" height="29" viewBox="0 0 48 29" fill="none" xmlns="http://www.w3.org/2000/svg">
<g clip-path="url(#clip0_517_11)">
<path d="M19.2001 22.4V0H22.6V27.5H18.5L4.20005 5.2V27.5H0.800049V0H4.80005L19.2001 22.4Z" fill="#C6A12D"/>
<path d="M44.7999 25.7C42.8999 27.3 40.2999 28.1 36.9999 28.1C33.6999 28.1 31.0999 27.3 29.1999 25.7C27.2999 24.1 26.3999 21.8 26.3999 18.8V0H29.9999V18.9C29.9999 20.8 30.5999 22.3 31.7999 23.3C32.9999 24.3 34.6999 24.8 37.0999 24.8C39.3999 24.8 41.1999 24.3 42.3999 23.3C43.5999 22.3 44.1999 20.8 44.1999 18.9V0H47.7999V18.8C47.5999 21.8 46.5999 24.1 44.7999 25.7Z" fill="#C6A12D"/>
</g>
<defs>
<clipPath id="clip0_517_11">
<rect width="48" height="29" fill="white"/>
</clipPath>
</defs>
</svg>
