<svg width="741" height="737" viewBox="0 0 741 737" fill="none" xmlns="http://www.w3.org/2000/svg">
<path d="M304.674 690.441L303.859 694.112L297.298 692.655L292.153 715.825L299.33 712.556L300.896 716.13L289.88 720.857L286.852 720.185L293.169 691.738L287.709 690.525L288.524 686.855L304.674 690.441Z" fill="white"/>
<path d="M274.742 682.82C273.657 686.256 272.471 689.233 271.184 691.751C269.857 694.289 268.421 696.498 266.875 698.376C265.3 700.244 263.567 701.882 261.677 703.29C259.787 704.698 257.717 706 255.467 707.195L270.572 711.962L269.412 715.637L249.511 709.357L250.53 706.13C253.223 704.778 255.559 703.363 257.537 701.885C259.506 700.436 261.243 698.783 262.749 696.926C264.246 695.098 265.594 692.911 266.791 690.365C267.98 687.849 269.121 684.857 270.215 681.391L274.742 682.82Z" fill="white"/>
<path d="M244.832 671.472C246.597 672.204 248.039 673.022 249.157 673.926C250.262 674.859 251.186 675.903 251.928 677.059L248.502 679.556C247.932 678.641 247.238 677.777 246.422 676.964C245.594 676.18 244.557 675.53 243.313 675.014C241.373 674.211 239.582 674.113 237.94 674.721C236.285 675.358 235.098 676.545 234.378 678.282C233.634 680.076 233.651 681.796 234.428 683.441C235.164 685.102 236.675 686.407 238.962 687.355L244.346 689.586L238.012 704.87L222.989 698.644L224.446 695.127L235.779 699.823L239.198 691.573L237.027 690.674C234.769 689.738 233.006 688.55 231.738 687.108C230.441 685.655 229.66 684.06 229.397 682.322C229.104 680.573 229.33 678.801 230.073 677.006C230.877 675.067 232.039 673.531 233.561 672.397C235.041 671.281 236.757 670.618 238.709 670.41C240.649 670.23 242.69 670.584 244.832 671.472Z" fill="white"/>
<path d="M211.472 656.287L194.403 684.413L189.059 681.17L192.066 658.64L173.59 671.782L168.126 668.466L185.194 640.34L189.011 642.657L174.893 665.921L192.672 653.565L196.449 655.857L193.738 677.357L207.855 654.092L211.472 656.287Z" fill="white"/>
<path d="M179.468 635.749L160.187 662.406L156.569 659.789L175.851 633.132L179.468 635.749Z" fill="white"/>
<path d="M167.485 626.814L146.6 652.235L143.15 649.401L161.499 627.066L149.842 617.489L152.378 614.402L167.485 626.814Z" fill="white"/>
<path d="M148.354 610.496L125.577 634.237L122.355 631.146L142.366 610.287L131.479 599.843L134.245 596.96L148.354 610.496Z" fill="white"/>
<path d="M130.483 592.61L106.289 614.905L103.263 611.622L127.457 589.327L130.483 592.61Z" fill="white"/>
<path d="M112.486 570.61C114.002 572.528 115.008 574.508 115.505 576.551C115.978 578.614 116.03 580.65 115.661 582.659C115.248 584.663 114.454 586.589 113.278 588.437C112.084 590.26 110.565 591.901 108.721 593.358C106.189 595.36 103.549 596.668 100.8 597.283C98.0073 597.893 95.3142 597.746 92.721 596.84C90.1032 595.954 87.7936 594.245 85.7921 591.713C84.2959 589.82 83.2992 587.852 82.8021 585.809C82.2856 583.741 82.2241 581.693 82.6175 579.664C83.011 577.635 83.7928 575.719 84.963 573.915C86.1138 572.087 87.611 570.444 89.4545 568.987C91.298 567.529 93.2544 566.442 95.3236 565.725C97.3734 564.983 99.4306 564.655 101.495 564.74C103.535 564.845 105.504 565.366 107.402 566.301C109.276 567.257 110.971 568.693 112.486 570.61ZM109.463 573C107.967 571.108 106.259 569.882 104.339 569.323C102.419 568.763 100.432 568.776 98.3781 569.361C96.2803 569.941 94.2482 571.009 92.2818 572.563C90.9545 573.613 89.8317 574.82 88.9136 576.184C87.9955 577.549 87.3486 578.979 86.973 580.475C86.5727 581.989 86.5174 583.511 86.8071 585.039C87.0773 586.543 87.7468 587.971 88.8155 589.323C90.234 591.117 91.9129 592.306 93.8523 592.89C95.7722 593.449 97.7785 593.461 99.8711 592.925C101.944 592.365 103.952 591.317 105.894 589.782C107.221 588.732 108.366 587.528 109.328 586.168C110.246 584.803 110.905 583.363 111.305 581.849C111.706 580.334 111.771 578.825 111.5 577.321C111.211 575.792 110.532 574.352 109.463 573Z" fill="white"/>
<path d="M99.6819 554.273L71.9194 571.927L68.7417 566.93L84.0315 539.997L60.9489 554.675L58.6792 551.105L86.4417 533.452L89.569 538.369L74.4882 565.281L97.4122 550.704L99.6819 554.273Z" fill="white"/>
<path d="M75.0431 511.346L45.1258 524.806C44.4558 523.699 43.7773 522.458 43.0902 521.084C42.3616 519.694 41.6567 518.241 40.9753 516.727C39.8568 514.241 39.3054 511.946 39.3213 509.843C39.3085 507.753 39.7823 505.942 40.7424 504.411C41.7026 502.879 43.0685 501.715 44.8401 500.918C46.9832 499.954 49.0355 499.666 50.997 500.055C52.9586 500.443 54.7636 501.401 56.4122 502.927C58.0323 504.465 59.4015 506.478 60.52 508.964C61.06 510.164 61.5185 511.298 61.8957 512.365L73.2111 507.274L75.0431 511.346ZM56.9026 509.973C55.7584 507.43 54.2998 505.715 52.5268 504.829C50.7539 503.944 48.9102 503.931 46.9957 504.793C45.1384 505.628 43.9689 506.962 43.4874 508.793C43.0058 510.625 43.3243 512.784 44.4428 515.27C44.7899 516.041 45.132 516.763 45.4691 517.436C45.8063 518.109 46.1384 518.733 46.4655 519.307L58.4239 513.927C58.2753 513.444 58.0818 512.861 57.8432 512.178C57.5761 511.508 57.2625 510.773 56.9026 509.973Z" fill="white"/>
<path d="M64.1724 485.874L33.178 496.908L31.6805 492.702L58.9112 483.007L53.8511 468.794L57.6147 467.454L64.1724 485.874Z" fill="white"/>
<path d="M50.8561 440.143L42.6915 446.071L46.5493 460.802L56.4805 461.991L55.9445 466.067L21.992 461.646L20.7537 456.917L48.2289 436.604L50.8561 440.143ZM42.5548 460.39L39.4233 448.433L25.7062 458.39L42.5548 460.39Z" fill="white"/>
<path d="M47.8028 425.655L19.263 430.523L20.9621 440.484L17.0703 441.148L12.9214 416.824L16.8131 416.16L18.5123 426.121L47.052 421.253L47.8028 425.655Z" fill="white"/>
<path d="M44.973 406.219L12.2046 409.158L10.462 389.731L14.3006 389.387L15.6442 404.367L25.662 403.468L24.5409 390.97L28.1922 390.642L29.3134 403.141L44.5741 401.772L44.973 406.219Z" fill="white"/>
<path d="M43.6147 366.791C43.6077 369.235 43.1629 371.411 42.2801 373.32C41.366 375.229 40.1393 376.855 38.6002 378.198C37.0298 379.509 35.2095 380.522 33.1395 381.237C31.0695 381.921 28.8596 382.259 26.5096 382.252C23.2823 382.243 20.4013 381.624 17.8668 380.395C15.3011 379.134 13.2852 377.342 11.8191 375.019C10.3217 372.696 9.57763 369.921 9.58682 366.694C9.59369 364.281 10.0385 362.121 10.9213 360.212C11.8041 358.272 13.0308 356.63 14.6013 355.287C16.1718 353.944 17.9764 352.931 20.015 352.248C22.0537 351.533 24.2481 351.179 26.5981 351.185C28.948 351.192 31.156 351.559 33.2219 352.285C35.288 352.98 37.1024 354.004 38.6652 355.356C40.1967 356.707 41.4141 358.34 42.3173 360.254C43.1892 362.168 43.6216 364.347 43.6147 366.791ZM39.7607 366.78C39.7676 364.367 39.1937 362.345 38.039 360.712C36.8843 359.079 35.3211 357.853 33.3494 357.033C31.3465 356.181 29.0917 355.751 26.5851 355.744C24.8931 355.74 23.263 355.986 21.6949 356.482C20.1269 356.979 18.7305 357.696 17.5058 358.632C16.2498 359.569 15.2595 360.725 14.5349 362.102C13.8104 363.447 13.4457 364.982 13.4408 366.705C13.4343 368.992 14.0083 370.968 15.1629 372.632C16.3176 374.264 17.8807 375.522 19.8522 376.405C21.8238 377.257 24.0472 377.686 26.5226 377.693C28.2146 377.698 29.8602 377.468 31.4596 377.002C33.0276 376.505 34.4397 375.789 35.6957 374.852C36.9517 373.916 37.942 372.775 38.6665 371.43C39.391 370.053 39.7558 368.503 39.7607 366.78Z" fill="white"/>
<path d="M46.2953 326.969L37.0008 330.144C34.6838 330.95 32.9792 332.085 31.8871 333.55C30.795 335.015 30.1266 336.963 29.8819 339.394L29.8113 340.096L44.2614 341.55L43.8143 345.992L11.1732 342.708C11.1835 341.04 11.2328 339.455 11.3211 337.952C11.3813 336.415 11.4976 334.789 11.6701 333.074C12.0717 329.084 13.1834 326.173 15.0053 324.34C16.8304 322.477 19.0211 321.674 21.5775 321.931C23.8534 322.16 25.6237 323.031 26.8886 324.544C28.1255 326.023 28.9582 328.075 29.3868 330.7C29.8457 329.896 30.373 329.193 30.9689 328.592C31.5336 327.987 32.2822 327.433 33.2147 326.928C34.1192 326.39 35.2887 325.878 36.7231 325.392L44.75 322.61L46.2953 326.969ZM26.0702 339.719L26.5878 334.575C26.8137 332.331 26.4984 330.457 25.6419 328.954C24.7854 327.45 23.4219 326.604 21.5514 326.416C19.9926 326.259 18.6485 326.785 17.5191 327.994C16.3586 329.2 15.6559 331.019 15.4113 333.451C15.3046 334.511 15.2245 335.463 15.171 336.308C15.1175 337.153 15.0874 337.922 15.0807 338.614L26.0702 339.719Z" fill="white"/>
<path d="M47.1249 316.949L14.8994 310.321L16.1588 304.198L38.3898 299.462L19.8042 286.474L21.0919 280.213L53.3174 286.841L52.4178 291.215L25.7628 285.732L43.3735 298.327L42.4834 302.655L21.322 307.323L47.9771 312.806L47.1249 316.949Z" fill="white"/>
<path d="M60.6104 264.054L29.84 252.678C30.1386 251.418 30.5246 250.058 30.9983 248.596C31.4534 247.094 31.9689 245.564 32.5448 244.007C33.4901 241.45 34.7056 239.427 36.1913 237.939C37.6476 236.439 39.2549 235.48 41.0133 235.061C42.7717 234.642 44.5619 234.77 46.384 235.443C48.5882 236.258 50.2534 237.492 51.3796 239.144C52.5058 240.797 53.1218 242.745 53.2276 244.989C53.3039 247.222 52.8695 249.617 51.9242 252.174C51.4678 253.408 51 254.538 50.5206 255.563L62.1587 259.866L60.6104 264.054ZM48.6371 250.357C49.6042 247.741 49.7661 245.496 49.123 243.622C48.4798 241.747 47.1737 240.446 45.2046 239.718C43.2944 239.011 41.5255 239.142 39.898 240.111C38.2705 241.079 36.9842 242.842 36.0389 245.399C35.7455 246.192 35.4831 246.947 35.2517 247.663C35.0203 248.379 34.8199 249.057 34.6505 249.696L46.9499 254.243C47.1825 253.795 47.4531 253.243 47.7618 252.589C48.0411 251.924 48.3329 251.18 48.6371 250.357Z" fill="white"/>
<path d="M80.749 218.099L70.6856 217.373L64.1461 231.125L70.976 238.432L67.9404 241.204L44.82 215.95L46.9191 211.536L81.0194 213.7L80.749 218.099ZM61.356 228.237L66.6643 217.074L49.7585 215.853L61.356 228.237Z" fill="white"/>
<path d="M94.7565 194.345L84.9908 193.298C82.5501 193.051 80.5255 193.36 78.9171 194.227C77.3086 195.093 75.8802 196.577 74.6316 198.678L74.2715 199.284L86.7564 206.703L84.4754 210.542L56.2732 193.783C56.9869 192.275 57.701 190.859 58.4154 189.534C59.119 188.166 59.9109 186.741 60.7913 185.26C62.8402 181.812 65.0772 179.642 67.5023 178.751C69.9434 177.832 72.2684 178.029 74.4771 179.342C76.4435 180.51 77.6805 182.047 78.1884 183.953C78.6853 185.815 78.5737 188.027 77.8538 190.588C78.6092 190.053 79.3839 189.638 80.178 189.345C80.9451 189.035 81.8579 188.849 82.9162 188.785C83.9636 188.679 85.24 188.708 86.7453 188.874L95.1964 189.741L94.7565 194.345ZM71.0391 197.363L73.6803 192.919C74.8327 190.98 75.3382 189.148 75.1965 187.423C75.0549 185.699 74.176 184.357 72.5598 183.396C71.213 182.596 69.7724 182.505 68.2382 183.124C66.677 183.727 65.2722 185.08 64.0236 187.181C63.4794 188.096 63.0047 188.926 62.5994 189.669C62.1942 190.413 61.8424 191.096 61.5441 191.721L71.0391 197.363Z" fill="white"/>
<path d="M103.672 180.423L80.1224 163.582L74.2445 171.802L71.0331 169.505L85.3861 149.434L88.5975 151.73L82.7196 159.95L106.27 176.791L103.672 180.423Z" fill="white"/>
<path d="M115.353 164.744L90.4149 143.285L94.2775 138.797L124.485 145.629L103.75 127.788L106.509 124.582L131.448 146.04L127.646 150.458L97.5203 143.819L118.112 161.538L115.353 164.744Z" fill="white"/>
<path d="M137.238 140.353L114.354 116.716L128.536 102.986L131.217 105.755L120.242 116.38L127.206 123.572L136.661 114.418L139.276 117.119L129.821 126.273L137.766 134.479L148.74 123.854L151.421 126.623L137.238 140.353Z" fill="white"/>
<path d="M172.028 110.382L163.219 106.039C161.012 104.966 159.005 104.56 157.197 104.82C155.388 105.081 153.536 105.982 151.641 107.525L151.094 107.97L160.264 119.233L156.801 122.052L136.088 96.6116C137.277 95.4416 138.435 94.3575 139.562 93.3593C140.693 92.317 141.927 91.2519 143.263 90.1638C146.373 87.6315 149.22 86.3641 151.804 86.3615C154.412 86.339 156.528 87.3241 158.15 89.3165C159.594 91.0903 160.227 92.9591 160.048 94.923C159.873 96.8428 159.008 98.8811 157.45 101.038C158.344 100.795 159.214 100.673 160.06 100.67C160.887 100.644 161.808 100.783 162.824 101.087C163.844 101.347 165.032 101.814 166.389 102.488L174.025 106.21L172.028 110.382ZM148.72 105.055L152.73 101.79C154.479 100.366 155.584 98.82 156.044 97.1522C156.505 95.4844 156.141 93.9215 154.954 92.4637C153.965 91.2487 152.644 90.668 150.99 90.7213C149.317 90.7504 147.533 91.5365 145.637 93.0796C144.811 93.7522 144.08 94.3677 143.444 94.9262C142.807 95.4846 142.242 96.0058 141.747 96.4896L148.72 105.055Z" fill="white"/>
<path d="M179.934 103.953L161.427 76.7516L177.747 65.6474L179.915 68.8338L167.286 77.4264L172.918 85.7033L183.798 78.3005L185.913 81.4092L175.033 88.812L181.457 98.2546L194.087 89.6621L196.254 92.8485L179.934 103.953Z" fill="white"/>
<path d="M210.029 85.3752C208.468 86.2435 207.076 86.9641 205.853 87.537C204.658 88.0946 203.454 88.6386 202.243 89.1688L186.34 60.5828C187.551 59.73 188.757 58.9334 189.959 58.1932C191.145 57.4255 192.532 56.6 194.121 55.7164C196.585 54.3455 198.92 53.5482 201.126 53.3248C203.36 53.0861 205.425 53.3176 207.322 54.0195C209.245 54.7062 210.976 55.7871 212.514 57.2622C214.064 58.6947 215.403 60.4241 216.53 62.4503C217.642 64.4491 218.405 66.4983 218.821 68.598C219.236 70.6977 219.222 72.7672 218.779 74.8065C218.348 76.8032 217.422 78.7165 216.002 80.5464C214.594 82.3337 212.603 83.9433 210.029 85.3752ZM208.256 81.8977C210.72 80.5267 212.466 78.9279 213.494 77.1013C214.521 75.2747 214.932 73.3069 214.727 71.198C214.507 69.0617 213.78 66.8846 212.546 64.6667C211.449 62.6952 210.051 61.0526 208.352 59.7389C206.653 58.4252 204.748 57.6746 202.635 57.4872C200.508 57.2724 198.253 57.8276 195.871 59.1529C195.077 59.5946 194.367 60.0257 193.74 60.4461C193.098 60.839 192.518 61.2152 192.001 61.5746L204.363 83.7945C204.984 83.5568 205.616 83.2764 206.261 82.9534C206.906 82.6304 207.571 82.2785 208.256 81.8977Z" fill="white"/>
<path d="M250.638 65.5547L231.511 38.6037L235.196 35.7878L251.782 60.1035L250.048 34.4674L255.314 32.5833L270.192 53.5171L267.592 24.3468L271.914 24.1483L274.269 57.1L269.047 58.9682L254.17 38.0345L255.86 63.6864L250.638 65.5547Z" fill="white"/>
<path d="M285.715 54.1965L277.371 22.3721L281.69 21.2397L290.034 53.0641L285.715 54.1965Z" fill="white"/>
<path d="M306.44 49.3885L300.87 20.9773L290.954 22.9214L290.195 19.0471L314.409 14.3001L315.168 18.1743L305.252 20.1183L310.822 48.5295L306.44 49.3885Z" fill="white"/>
<path d="M325.696 46.0022L322.286 13.2795L326.727 12.8166L328.184 26.7939L344.311 25.1131L342.855 11.1358L347.296 10.6729L350.706 43.3957L346.265 43.8586L344.711 28.9463L328.583 30.6272L330.137 45.5394L325.696 46.0022Z" fill="white"/>
<path d="M381.472 43.3634L382.548 14.4314L372.45 14.0558L372.596 10.1105L397.254 11.0277L397.108 14.973L387.01 14.5973L385.933 43.5293L381.472 43.3634Z" fill="white"/>
<path d="M401.22 44.6571L404.504 11.9214L408.947 12.3672L405.662 45.1028L401.22 44.6571Z" fill="white"/>
<path d="M416.049 46.343L421.424 13.885L440.899 17.1098L440.269 20.9121L425.199 18.4166L423.564 28.2931L436.547 30.443L435.933 34.1525L422.949 32.0026L421.084 43.2702L436.153 45.7656L435.524 49.5678L416.049 46.343Z" fill="white"/>
<path d="M460.84 56.4624L459.087 46.7983C458.636 44.387 457.767 42.5322 456.482 41.2338C455.196 39.9354 453.37 38.9839 451.002 38.3792L450.318 38.2048L446.725 52.2763L442.399 51.1717L450.516 19.3855C452.163 19.6446 453.724 19.9298 455.196 20.2412C456.707 20.5299 458.298 20.8875 459.967 21.3139C463.853 22.3061 466.566 23.8397 468.106 25.9145C469.676 27.997 470.144 30.283 469.508 32.7725C468.942 34.9887 467.817 36.6094 466.132 37.6345C464.486 38.6369 462.332 39.1543 459.672 39.1865C460.399 39.7601 461.015 40.3864 461.521 41.0653C462.035 41.7138 462.471 42.5368 462.831 43.5341C463.229 44.5089 463.561 45.7417 463.827 47.2325L465.381 55.5846L460.84 56.4624ZM451.249 34.5617L456.258 35.8408C458.444 36.3989 460.344 36.3667 461.958 35.744C463.572 35.1214 464.612 33.8992 465.077 32.0777C465.465 30.5597 465.145 29.1522 464.118 27.8551C463.099 26.5277 461.405 25.5616 459.037 24.957C458.005 24.6934 457.075 24.4722 456.248 24.2932C455.42 24.1143 454.665 23.9699 453.981 23.8601L451.249 34.5617Z" fill="white"/>
<path d="M488.858 65.5L490.286 62.022L496.503 64.5756L505.522 42.6206L497.892 44.6187L496.958 40.8308L508.619 38.0495L511.488 39.2281L500.416 66.1828L505.59 68.3079L504.161 71.7859L488.858 65.5Z" fill="white"/>
<path d="M527.529 83.3523L544.509 55.1728L549.863 58.399L546.927 80.9385L565.362 67.7381L570.837 71.0371L553.857 99.2166L550.032 96.9121L564.077 73.6036L546.337 86.0155L542.553 83.7353L545.197 62.2269L531.152 85.5354L527.529 83.3523Z" fill="white"/>
<path d="M559.509 103.629L579.184 77.2602L595.005 89.0651L592.701 92.154L580.458 83.0193L574.471 91.0429L585.019 98.9128L582.77 101.926L572.223 94.0565L565.393 103.21L577.635 112.345L575.331 115.434L559.509 103.629Z" fill="white"/>
<path d="M586.889 126.016C585.559 124.824 584.424 123.744 583.483 122.775C582.566 121.826 581.659 120.866 580.763 119.894L602.596 95.5351C603.798 96.4013 604.944 97.2817 606.036 98.1761C607.149 99.0472 608.382 100.089 609.735 101.302C611.835 103.184 613.35 105.132 614.281 107.145C615.236 109.178 615.691 111.206 615.646 113.227C615.624 115.27 615.167 117.259 614.275 119.194C613.426 121.126 612.228 122.956 610.68 124.682C609.154 126.385 607.466 127.776 605.616 128.853C603.767 129.931 601.806 130.593 599.734 130.839C597.706 131.083 595.595 130.832 593.402 130.087C591.253 129.339 589.082 127.982 586.889 126.016ZM589.598 123.206C591.698 125.088 593.779 126.217 595.841 126.592C597.902 126.967 599.897 126.714 601.823 125.832C603.771 124.927 605.592 123.529 607.286 121.639C608.791 119.959 609.888 118.102 610.576 116.067C611.263 114.033 611.351 111.987 610.839 109.929C610.348 107.848 609.087 105.897 607.058 104.078C606.381 103.472 605.742 102.941 605.14 102.485C604.559 102.007 604.014 101.582 603.506 101.21L586.535 120.145C586.962 120.654 587.433 121.161 587.949 121.665C588.465 122.169 589.014 122.683 589.598 123.206Z" fill="white"/>
<path d="M604.087 141.925L627.746 119.064L630.849 122.274L607.189 145.136L604.087 141.925Z" fill="white"/>
<path d="M628.482 170.339L633.33 161.491L623.547 149.821L614.06 152.991L612.803 149.077L645.388 138.563L648.528 142.309L632.37 172.416L628.482 170.339ZM627.334 148.486L635.276 157.959L643.421 143.094L627.334 148.486Z" fill="white"/>
<path d="M648.773 200.482C647.443 198.32 646.821 196.054 646.908 193.683C646.994 191.312 647.769 189.014 649.233 186.789C650.723 184.548 652.87 182.565 655.672 180.841C658.661 179.002 661.601 177.892 664.494 177.51C667.413 177.112 670.095 177.467 672.542 178.573C675.032 179.69 677.106 181.596 678.764 184.292C679.832 186.026 680.571 187.706 680.981 189.329C681.391 190.953 681.632 192.571 681.704 194.182L677.68 194.727C677.604 193.228 677.405 191.769 677.083 190.348C676.777 188.954 676.189 187.55 675.319 186.136C674.284 184.455 672.911 183.239 671.199 182.49C669.514 181.724 667.566 181.488 665.355 181.781C663.161 182.101 660.81 183.033 658.301 184.576C656.059 185.955 654.351 187.485 653.177 189.164C652.029 190.826 651.406 192.534 651.308 194.287C651.209 196.04 651.652 197.717 652.637 199.318C653.557 200.813 654.676 201.945 655.996 202.715C657.359 203.495 658.579 204.013 659.657 204.27L665.782 200.502L662.21 194.698L665.213 192.85L671.001 202.257L656.149 211.395L654.081 208.032L656.883 206.308C655.481 205.883 654.022 205.217 652.507 204.31C651.019 203.386 649.774 202.11 648.773 200.482Z" fill="white"/>
<path d="M667.121 234.798L673.313 227.174C674.849 225.261 675.69 223.394 675.839 221.573C675.987 219.752 675.519 217.746 674.436 215.555L674.123 214.923L661.105 221.361L659.126 217.358L688.532 202.816C689.409 204.235 690.209 205.605 690.932 206.925C691.696 208.26 692.461 209.7 693.225 211.244C695.003 214.84 695.606 217.897 695.034 220.417C694.477 222.965 693.046 224.808 690.743 225.947C688.693 226.961 686.73 227.163 684.855 226.552C683.022 225.955 681.227 224.658 679.47 222.661C679.508 223.586 679.434 224.461 679.248 225.287C679.091 226.099 678.751 226.966 678.228 227.889C677.748 228.826 677.028 229.88 676.07 231.053L670.744 237.672L667.121 234.798ZM677.494 213.256L679.785 217.891C680.785 219.913 682.047 221.334 683.571 222.153C685.095 222.973 686.699 222.966 688.385 222.132C689.789 221.438 690.649 220.278 690.964 218.654C691.308 217.016 690.938 215.102 689.854 212.911C689.382 211.956 688.944 211.107 688.541 210.362C688.138 209.618 687.756 208.95 687.394 208.36L677.494 213.256Z" fill="white"/>
<path d="M675.992 256.744C675.127 254.458 674.766 252.266 674.91 250.168C675.083 248.058 675.65 246.102 676.609 244.298C677.608 242.513 678.947 240.917 680.626 239.511C682.316 238.135 684.26 237.03 686.458 236.198C689.476 235.056 692.389 234.607 695.195 234.852C698.042 235.114 700.564 236.069 702.762 237.717C704.989 239.353 706.674 241.68 707.817 244.698C708.671 246.955 709.026 249.132 708.882 251.23C708.749 253.358 708.188 255.329 707.2 257.143C706.212 258.958 704.887 260.548 703.226 261.914C701.577 263.309 699.653 264.422 697.455 265.254C695.257 266.086 693.064 266.531 690.875 266.589C688.696 266.676 686.636 266.367 684.694 265.662C682.781 264.945 681.062 263.854 679.535 262.388C678.038 260.911 676.857 259.029 675.992 256.744ZM679.596 255.379C680.45 257.636 681.708 259.321 683.369 260.434C685.03 261.548 686.928 262.136 689.062 262.199C691.237 262.28 693.497 261.877 695.841 260.99C697.424 260.391 698.859 259.58 700.147 258.557C701.434 257.533 702.483 256.366 703.294 255.054C704.133 253.731 704.646 252.297 704.832 250.753C705.029 249.238 704.822 247.674 704.212 246.063C703.403 243.923 702.162 242.282 700.49 241.14C698.829 240.026 696.92 239.408 694.763 239.287C692.617 239.194 690.387 239.586 688.072 240.462C686.489 241.061 685.034 241.863 683.706 242.869C682.418 243.892 681.355 245.065 680.515 246.388C679.676 247.711 679.157 249.13 678.96 250.645C678.774 252.189 678.986 253.768 679.596 255.379Z" fill="white"/>
<path d="M685.663 287.44C684.682 283.778 685.001 280.61 686.62 277.938C688.24 275.266 691.077 273.386 695.133 272.299L714.836 267.02L715.991 271.332L696.97 276.43C693.943 277.241 691.764 278.49 690.432 280.177C689.1 281.864 688.766 283.948 689.431 286.43C690.12 289.002 691.437 290.709 693.382 291.551C695.357 292.384 697.903 292.383 701.021 291.547L720.043 286.45L721.162 290.627L701.641 295.858C698.977 296.572 696.543 296.689 694.339 296.209C692.172 295.751 690.335 294.768 688.828 293.258C687.359 291.77 686.304 289.831 685.663 287.44Z" fill="white"/>
<path d="M690.685 306.371L723.006 300.753C723.381 301.992 723.73 303.362 724.055 304.864C724.416 306.392 724.738 307.974 725.023 309.61C725.49 312.295 725.454 314.655 724.917 316.688C724.411 318.716 723.503 320.353 722.193 321.598C720.883 322.844 719.271 323.633 717.357 323.965C715.041 324.368 712.982 324.137 711.178 323.274C709.374 322.411 707.863 321.036 706.645 319.148C705.457 317.256 704.63 314.967 704.163 312.281C703.938 310.984 703.775 309.772 703.674 308.645L691.45 310.77L690.685 306.371ZM707.918 312.201C708.395 314.948 709.383 316.971 710.881 318.269C712.378 319.567 714.161 320.036 716.23 319.677C718.236 319.328 719.7 318.327 720.621 316.672C721.542 315.017 721.769 312.847 721.302 310.161C721.157 309.327 721.005 308.543 720.845 307.807C720.686 307.072 720.519 306.385 720.344 305.748L707.425 307.993C707.449 308.498 707.492 309.11 707.554 309.831C707.646 310.547 707.768 311.336 707.918 312.201Z" fill="white"/>
<path d="M695.075 341.914C694.872 339.635 694.984 337.533 695.41 335.608C695.868 333.68 696.539 332.032 697.424 330.663L701.369 332.577C700.533 333.784 699.881 335.116 699.413 336.573C698.945 338.03 698.794 339.695 698.961 341.568C699.161 343.815 699.787 345.552 700.84 346.78C701.893 348.007 703.215 348.55 704.807 348.409C705.712 348.328 706.491 348.07 707.144 347.634C707.829 347.196 708.45 346.401 709.009 345.251C709.601 344.129 710.194 342.487 710.788 340.327C711.462 338.002 712.176 336.129 712.931 334.71C713.716 333.287 714.645 332.229 715.715 331.536C716.82 330.872 718.153 330.47 719.713 330.331C721.274 330.192 722.716 330.489 724.039 331.22C725.397 331.98 726.523 333.154 727.42 334.742C728.35 336.358 728.92 338.352 729.131 340.723C729.304 342.659 729.255 344.409 728.985 345.974C728.75 347.568 728.338 349.13 727.751 350.661L723.813 349.36C724.343 348.243 724.747 346.949 725.025 345.477C725.337 344.034 725.423 342.532 725.284 340.971C725.101 338.912 724.551 337.325 723.634 336.211C722.717 335.097 721.619 334.597 720.339 334.711C719.528 334.783 718.825 335.019 718.231 335.418C717.638 335.817 717.089 336.542 716.585 337.593C716.083 338.676 715.548 340.265 714.98 342.36C714.291 344.875 713.51 346.879 712.636 348.373C711.766 349.897 710.763 351.009 709.63 351.707C708.528 352.403 707.228 352.817 705.73 352.951C703.701 353.131 701.923 352.77 700.396 351.868C698.872 350.997 697.654 349.69 696.744 347.946C695.837 346.234 695.28 344.223 695.075 341.914Z" fill="white"/>
<path d="M695.295 399.738L704.87 396.556L705.646 381.348L696.539 377.212L698.282 373.489L729.31 387.968L729.06 392.849L696.73 403.905L695.295 399.738ZM709.329 382.947L708.699 395.292L724.785 389.948L709.329 382.947Z" fill="white"/>
<path d="M691.449 427.045L700.872 424.273C703.221 423.567 704.973 422.506 706.127 421.09C707.281 419.673 708.033 417.756 708.382 415.337L708.482 414.639L694.108 412.565L694.746 408.146L727.216 412.831C727.134 414.497 727.016 416.079 726.863 417.576C726.737 419.109 726.551 420.729 726.305 422.434C725.732 426.404 724.496 429.265 722.597 431.017C720.694 432.8 718.47 433.508 715.927 433.141C713.664 432.814 711.932 431.868 710.734 430.302C709.562 428.772 708.818 426.686 708.502 424.044C708.009 424.828 707.452 425.507 706.831 426.083C706.241 426.662 705.469 427.184 704.516 427.648C703.589 428.147 702.399 428.609 700.945 429.032L692.806 431.467L691.449 427.045ZM712.204 415.176L711.466 420.293C711.143 422.526 711.378 424.412 712.169 425.951C712.96 427.489 714.286 428.393 716.146 428.661C717.697 428.885 719.063 428.417 720.243 427.258C721.454 426.103 722.234 424.316 722.583 421.897C722.736 420.843 722.857 419.895 722.946 419.053C723.036 418.211 723.099 417.445 723.136 416.754L712.204 415.176Z" fill="white"/>
<path d="M686.32 450.153C686.903 447.78 687.848 445.77 689.156 444.123C690.494 442.483 692.069 441.192 693.881 440.25C695.717 439.345 697.724 438.789 699.904 438.583C702.077 438.406 704.305 438.598 706.587 439.158C709.721 439.928 712.375 441.209 714.548 443.001C716.745 444.83 718.282 447.047 719.159 449.65C720.067 452.26 720.136 455.132 719.367 458.267C718.791 460.61 717.85 462.605 716.542 464.252C715.227 465.929 713.648 467.235 711.805 468.17C709.963 469.105 707.97 469.665 705.828 469.849C703.678 470.063 701.462 469.89 699.18 469.33C696.898 468.769 694.838 467.893 693.002 466.7C691.158 465.537 689.635 464.115 688.435 462.433C687.265 460.758 686.467 458.885 686.04 456.812C685.644 454.746 685.737 452.527 686.32 450.153ZM690.063 451.072C689.488 453.415 689.569 455.516 690.306 457.375C691.044 459.234 692.274 460.794 693.996 462.056C695.742 463.356 697.832 464.304 700.267 464.902C701.91 465.305 703.552 465.45 705.193 465.337C706.834 465.224 708.36 464.856 709.771 464.235C711.212 463.621 712.447 462.73 713.476 461.563C714.497 460.426 715.213 459.021 715.624 457.348C716.169 455.126 716.077 453.071 715.347 451.182C714.609 449.323 713.387 447.732 711.679 446.41C709.964 445.117 707.904 444.176 705.5 443.586C703.857 443.183 702.203 443.019 700.539 443.094C698.898 443.207 697.357 443.571 695.916 444.185C694.474 444.799 693.243 445.675 692.222 446.811C691.193 447.978 690.474 449.399 690.063 451.072Z" fill="white"/>
<path d="M676.891 480.925C678.158 477.351 680.215 474.923 683.064 473.639C685.913 472.355 689.316 472.415 693.273 473.818L712.499 480.635L711.007 484.843L692.446 478.262C689.493 477.215 686.989 477.009 684.936 477.644C682.882 478.279 681.426 479.807 680.567 482.228C679.677 484.739 679.795 486.891 680.92 488.687C682.075 490.492 684.174 491.935 687.215 493.013L705.776 499.594L704.331 503.67L685.283 496.916C682.684 495.994 680.613 494.711 679.068 493.066C677.543 491.462 676.587 489.61 676.201 487.512C675.833 485.453 676.063 483.258 676.891 480.925Z" fill="white"/>
<path d="M670.392 499.333L700.184 513.292L697.672 518.655L666.74 520.2L691.51 531.806L689.715 535.636L659.923 521.677L662.396 516.4L693.197 514.69L668.598 503.163L670.392 499.333Z" fill="white"/>
<path d="M651.223 535.924C652.136 534.389 652.978 533.067 653.748 531.957C654.502 530.875 655.269 529.8 656.05 528.733L684.159 545.464C683.541 546.81 682.898 548.105 682.23 549.348C681.59 550.608 680.805 552.019 679.876 553.58C678.433 556.003 676.814 557.866 675.019 559.167C673.207 560.495 671.305 561.332 669.313 561.678C667.304 562.05 665.265 561.985 663.194 561.482C661.134 561.022 659.108 560.199 657.116 559.013C655.15 557.843 653.461 556.454 652.047 554.847C650.634 553.24 649.606 551.443 648.965 549.457C648.335 547.514 648.174 545.395 648.483 543.099C648.803 540.847 649.716 538.455 651.223 535.924ZM654.503 538.04C653.06 540.464 652.354 542.723 652.383 544.819C652.411 546.914 653.044 548.822 654.281 550.543C655.544 552.28 657.267 553.797 659.448 555.095C661.386 556.249 663.42 556.967 665.549 557.25C667.678 557.533 669.703 557.224 671.623 556.326C673.571 555.443 675.242 553.83 676.636 551.488C677.101 550.707 677.498 549.978 677.829 549.299C678.187 548.637 678.499 548.021 678.766 547.45L656.916 534.445C656.499 534.962 656.093 535.523 655.697 536.126C655.302 536.729 654.903 537.367 654.503 538.04Z" fill="white"/>
<path d="M625.225 574.277L647.799 592.406L654.126 584.528L657.204 587L641.753 606.238L638.675 603.766L645.003 595.888L622.429 577.759L625.225 574.277Z" fill="white"/>
<path d="M612.687 589.28L636.389 612.097L633.293 615.314L623.168 605.567L611.923 617.249L622.047 626.995L618.95 630.212L595.248 607.395L598.345 604.178L609.146 614.576L620.392 602.894L609.591 592.496L612.687 589.28Z" fill="white"/>
<path d="M589.475 612.411L611.005 637.288L596.078 650.206L593.556 647.292L605.106 637.296L598.555 629.726L588.604 638.338L586.144 635.495L596.095 626.883L588.621 618.247L577.071 628.243L574.549 625.329L589.475 612.411Z" fill="white"/>
<path d="M551.041 642.406L575.441 664.695L572.436 668.227L551.076 647.976L558.2 672.663L553.453 675.62L534.48 658.311L543.198 686.27L539.016 687.379L529.736 655.673L534.444 652.742L553.417 670.05L546.333 645.338L551.041 642.406Z" fill="white"/>
<path d="M506.919 666.282C509.13 665.241 511.287 664.709 513.39 664.688C515.507 664.696 517.501 665.107 519.375 665.921C521.233 666.778 522.929 667.988 524.462 669.551C525.967 671.128 527.22 672.979 528.222 675.105C529.597 678.025 530.273 680.893 530.25 683.71C530.211 686.568 529.457 689.158 527.987 691.478C526.53 693.827 524.342 695.689 521.423 697.065C519.24 698.093 517.098 698.618 514.995 698.639C512.863 698.673 510.854 698.269 508.968 697.426C507.081 696.583 505.392 695.387 503.9 693.838C502.38 692.303 501.12 690.473 500.118 688.347C499.116 686.221 498.501 684.069 498.271 681.891C498.014 679.727 498.16 677.648 498.711 675.657C499.276 673.694 500.229 671.894 501.571 670.257C502.926 668.649 504.709 667.324 506.919 666.282ZM508.562 669.769C506.38 670.797 504.798 672.183 503.819 673.926C502.839 675.669 502.401 677.607 502.506 679.74C502.595 681.915 503.174 684.136 504.242 686.404C504.963 687.934 505.885 689.301 507.006 690.505C508.127 691.708 509.373 692.663 510.745 693.367C512.129 694.101 513.599 694.499 515.153 694.564C516.679 694.641 518.221 694.313 519.78 693.578C521.849 692.603 523.388 691.238 524.396 689.481C525.376 687.738 525.842 685.786 525.794 683.627C525.718 681.48 525.153 679.288 524.098 677.048C523.377 675.518 522.463 674.13 521.357 672.885C520.235 671.681 518.982 670.713 517.598 669.98C516.213 669.246 514.758 668.841 513.232 668.763C511.678 668.699 510.121 669.034 508.562 669.769Z" fill="white"/>
<path d="M469.795 680.936L476.648 687.971C478.37 689.719 480.127 690.772 481.918 691.131C483.71 691.489 485.756 691.258 488.058 690.436L488.722 690.199L483.84 676.521L488.045 675.02L499.074 705.917C497.563 706.623 496.109 707.258 494.714 707.822C493.299 708.427 491.781 709.019 490.158 709.599C486.381 710.947 483.274 711.191 480.837 710.331C478.371 709.481 476.707 707.846 475.843 705.426C475.074 703.272 475.102 701.299 475.926 699.508C476.731 697.757 478.228 696.124 480.416 694.611C479.493 694.542 478.632 694.367 477.833 694.086C477.045 693.835 476.223 693.397 475.367 692.771C474.493 692.184 473.529 691.348 472.475 690.26L466.519 684.201L469.795 680.936ZM489.986 693.74L485.117 695.478C482.993 696.237 481.435 697.325 480.444 698.743C479.453 700.162 479.274 701.756 479.906 703.527C480.432 705.002 481.484 705.991 483.061 706.493C484.648 707.024 486.592 706.879 488.894 706.057C489.897 705.699 490.792 705.363 491.578 705.049C492.364 704.735 493.071 704.433 493.7 704.142L489.986 693.74Z" fill="white"/>
<path d="M460.169 684.345L468.612 716.143L464.297 717.289L456.879 689.352L442.297 693.224L441.272 689.363L460.169 684.345Z" fill="white"/>
<path d="M427.274 691.528C429.034 691.222 430.586 691 431.929 690.861C433.242 690.728 434.557 690.61 435.875 690.508L441.485 722.736C440.061 723.142 438.66 723.498 437.282 723.801C435.909 724.136 434.327 724.459 432.537 724.77C429.759 725.254 427.291 725.238 425.134 724.723C422.946 724.214 421.072 723.315 419.513 722.029C417.922 720.747 416.643 719.157 415.676 717.258C414.684 715.395 413.989 713.322 413.592 711.037C413.199 708.784 413.153 706.597 413.452 704.478C413.751 702.359 414.445 700.409 415.534 698.629C416.598 696.886 418.102 695.383 420.045 694.123C421.963 692.898 424.373 692.034 427.274 691.528ZM427.805 695.396C425.026 695.879 422.852 696.815 421.28 698.201C419.709 699.588 418.673 701.311 418.173 703.37C417.678 705.46 417.648 707.755 418.083 710.255C418.47 712.478 419.25 714.489 420.422 716.289C421.594 718.088 423.146 719.424 425.079 720.296C427.017 721.199 429.329 721.417 432.015 720.949C432.91 720.794 433.723 720.62 434.453 720.43C435.188 720.27 435.859 720.105 436.466 719.936L432.105 694.886C431.44 694.906 430.751 694.962 430.035 695.055C429.32 695.148 428.576 695.261 427.805 695.396Z" fill="white"/>
<rect x="331" y="704" width="62" height="5" fill="#D9D9D9"/>
</svg>
